# xmcd CD database file
#
# Track frame offsets:
#	150
#	13218
#	27045
#	40646
#	54736
#	65327
#	84377
#	101981
#	117982
#	133470
#	149033
#	165265
#	181794
#	196686
#	215106
#
# Disc length: 3003 seconds
#
# Revision: 1
# Processed by: cddbd v1.5.1PL0 Copyright (c) Steve Scherf et al.
# Submitted via: CDex 1.50
#
DISCID=d70bb90f
DTITLE=Glen Kelley - Alone Together
DYEAR=1900
DGENRE=Jazz
TTITLE0=The Nearness Of You
TTITLE1=My Romance
TTITLE2=For Sentimental Reasons
TTITLE3=What'll I Do
TTITLE4=East Of The Sun
TTITLE5=A Time For Love
TTITLE6=So Many Stars
TTITLE7=My Foolish Heart
TTITLE8=Alone Together
TTITLE9=Somewhere In Time
TTITLE10=I Thought About You
TTITLE11=How Deep Is The Ocean
TTITLE12=I'm Glad There Is You
TTITLE13=You Must Believe In Spring
TTITLE14=I'll Be Seeing You
EXTD=
EXTT0=
EXTT1=
EXTT2=
EXTT3=
EXTT4=
EXTT5=
EXTT6=
EXTT7=
EXTT8=
EXTT9=
EXTT10=
EXTT11=
EXTT12=
EXTT13=
EXTT14=
PLAYORDER=
